<svg width="1024" height="1024" viewBox="0 0 1024 1024" fill="none" xmlns="http://www.w3.org/2000/svg">
  <defs>
    <linearGradient id="tile" x1="670.5" y1="960" x2="507.5" y2="69.5" gradientUnits="userSpaceOnUse">
      <stop stop-color="#FD0032"/>
      <stop offset="1" stop-color="#FE0031"/>
    </linearGradient>
    <filter id="tileShadow" x="16" y="38" width="992" height="1004" filterUnits="userSpaceOnUse" color-interpolation-filters="sRGB">
      <feFlood flood-opacity="0" result="BackgroundImageFix"/>
      <feColorMatrix in="SourceAlpha" type="matrix" values="0 0 0 0 0 0 0 0 0 0 0 0 0 0 0 0 0 0 127 0" result="hardAlpha"/>
      <feOffset dy="30"/>
      <feGaussianBlur stdDeviation="24"/>
      <feComposite in2="hardAlpha" operator="out"/>
      <feColorMatrix type="matrix" values="0 0 0 0 0.34 0 0 0 0 0 0 0 0 0 0.04 0 0 0 0.22 0"/>
      <feBlend mode="normal" in2="BackgroundImageFix" result="effect1_dropShadow"/>
      <feBlend mode="normal" in="SourceGraphic" in2="effect1_dropShadow" result="shape"/>
    </filter>
    <filter id="symbolShadow" x="128" y="162" width="768" height="734" filterUnits="userSpaceOnUse" color-interpolation-filters="sRGB">
      <feFlood flood-opacity="0" result="BackgroundImageFix"/>
      <feColorMatrix in="SourceAlpha" type="matrix" values="0 0 0 0 0 0 0 0 0 0 0 0 0 0 0 0 0 0 127 0" result="hardAlpha"/>
      <feOffset dy="16"/>
      <feGaussianBlur stdDeviation="14"/>
      <feComposite in2="hardAlpha" operator="out"/>
      <feColorMatrix type="matrix" values="0 0 0 0 0.48 0 0 0 0 0 0 0 0 0 0.06 0 0 0 0.16 0"/>
      <feBlend mode="normal" in2="BackgroundImageFix" result="effect1_dropShadow"/>
      <feBlend mode="normal" in="SourceGraphic" in2="effect1_dropShadow" result="shape"/>
    </filter>
  </defs>
  <g filter="url(#tileShadow)">
    <path d="M294 64H730C865.8 64 960 158.2 960 294V730C960 865.8 865.8 960 730 960H294C158.2 960 64 865.8 64 730V294C64 158.2 158.2 64 294 64Z" fill="url(#tile)"/>
  </g>
  <g filter="url(#symbolShadow)">
    <path transform="translate(62 136) scale(15.2)" d="M40.2454 18.4114C42.1615 18.733 43.9292 19.6468 45.2991 21.0247C48.0348 24.1959 48.0348 32.2988 45.2991 35.47C44.8198 35.9902 44.2611 36.4312 43.6438 36.7766L43.3469 38.6233C43.2679 39.086 43.0748 39.5221 42.7844 39.8909C42.4941 40.2596 42.116 40.5503 41.6848 40.7356C41.2537 40.9208 40.7829 40.9945 40.3157 40.9514C39.8484 40.9083 39.399 40.7495 39.009 40.4885L36.0989 38.554C36.0327 38.5074 35.9532 38.4834 35.8723 38.4846C31.795 38.4671 28.3794 37.3344 26.759 35.47C26.5223 35.1881 26.3125 34.8846 26.1321 34.5637C31.272 34.4593 35.4537 32.9781 37.5969 30.4866C39.9145 27.8033 40.803 22.8197 40.2454 18.4114ZM25.5745 9.20728C30.3934 9.20728 34.3971 10.5092 36.2825 12.6907C39.444 16.3474 39.444 25.6864 36.2825 29.344C34.4294 31.4871 30.4922 32.785 25.7483 32.8157C25.5914 32.8135 25.437 32.8564 25.304 32.9397L21.8684 35.2297C21.4515 35.5083 20.9713 35.6778 20.4719 35.7229C19.9727 35.768 19.47 35.6878 19.01 35.4885C18.5501 35.2893 18.1477 34.9773 17.8391 34.5823C17.5305 34.1871 17.3254 33.7205 17.2434 33.2258L16.8586 30.9133C16.1097 30.5098 15.4366 29.9792 14.8684 29.3459C11.7051 25.6867 11.7049 16.3473 14.8665 12.6897C16.7518 10.5091 20.7556 9.20728 25.5745 9.20728ZM23.5793 17.595C23.0941 17.3548 22.5247 17.7078 22.5247 18.2493V24.9514C22.5247 25.4929 23.0941 25.8459 23.5793 25.6057L30.3508 22.2551C30.8924 21.987 30.8924 21.2137 30.3508 20.9456L23.5793 17.595Z" fill="#FFFFFF"/>
  </g>
</svg>
