<svg width="1746" height="457" viewBox="0 0 1746 457" fill="none" xmlns="http://www.w3.org/2000/svg">
<path d="M477 80.5811C477 34.8101 486.81 25 532.581 25H554.813C600.584 25 610.394 34.8101 610.394 80.5811C610.394 126.352 600.584 136.162 554.813 136.162H532.581C486.81 136.162 477 126.352 477 80.5811Z" fill="url(#paint0_linear_535_68)"/>
<g filter="url(#filter0_d_535_68)">
<path d="M567.704 66.491C572.022 67.2158 576.005 69.2739 579.093 72.3788C585.258 79.5259 585.258 97.7898 579.093 104.937C578.013 106.108 576.752 107.099 575.361 107.877L574.694 112.039C574.516 113.082 574.079 114.063 573.425 114.895C572.771 115.726 571.918 116.38 570.947 116.798C569.975 117.216 568.913 117.385 567.86 117.287C566.808 117.19 565.797 116.832 564.919 116.244L558.359 111.884C558.21 111.779 558.03 111.725 557.848 111.728C548.659 111.688 540.96 109.133 537.308 104.931C536.776 104.297 536.305 103.615 535.9 102.893C547.482 102.658 556.906 99.3188 561.736 93.7038C566.959 87.6571 568.96 76.4258 567.704 66.491ZM534.641 45.7467C545.502 45.7468 554.524 48.6809 558.773 53.5971C565.898 61.8384 565.898 82.8856 558.773 91.1286C554.597 95.958 545.725 98.8828 535.033 98.9521C534.681 98.9472 534.333 99.0446 534.034 99.2313L526.291 104.393C525.351 105.021 524.265 105.405 523.14 105.507C522.015 105.608 520.88 105.423 519.844 104.974C518.808 104.525 517.904 103.821 517.209 102.931C516.513 102.04 516.049 100.992 515.865 99.8766L514.999 94.6662C513.311 93.7566 511.79 92.5613 510.509 91.1336C503.38 82.8867 503.384 61.8348 510.509 53.5917C514.759 48.6787 523.782 45.7467 534.641 45.7467ZM530.141 64.6521C529.047 64.1111 527.764 64.9055 527.764 66.1254V81.2293C527.764 82.4495 529.047 83.244 530.141 82.7028L545.401 75.1534C546.621 74.5492 546.621 72.8056 545.401 72.2014L530.141 64.6521Z" fill="white"/>
</g>
<path d="M701.615 72.6446H691.24C690.841 70.4276 690.098 68.4767 689.012 66.7918C687.926 65.1069 686.595 63.6769 685.021 62.5019C683.447 61.327 681.685 60.4402 679.734 59.8416C677.805 59.243 675.755 58.9437 673.582 58.9437C669.658 58.9437 666.144 59.9302 663.04 61.9034C659.958 63.8765 657.52 66.7696 655.724 70.5828C653.95 74.396 653.064 79.0517 653.064 84.5499C653.064 90.0922 653.95 94.7702 655.724 98.5831C657.52 102.397 659.969 105.278 663.073 107.229C666.177 109.181 669.669 110.156 673.548 110.156C675.699 110.156 677.738 109.868 679.667 109.291C681.619 108.693 683.381 107.817 684.955 106.664C686.529 105.511 687.859 104.103 688.945 102.441C690.054 100.756 690.819 98.827 691.24 96.6543L701.615 96.6879C701.061 100.035 699.986 103.117 698.39 105.933C696.816 108.726 694.787 111.142 692.304 113.182C689.843 115.199 687.028 116.762 683.857 117.871C680.687 118.979 677.229 119.534 673.482 119.534C667.585 119.534 662.33 118.137 657.719 115.343C653.108 112.528 649.472 108.504 646.812 103.272C644.174 98.0402 642.854 91.7991 642.854 84.5499C642.854 77.2781 644.185 71.0373 646.845 65.8274C649.505 60.5954 653.141 56.5826 657.753 53.7893C662.364 50.9737 667.607 49.5659 673.482 49.5659C677.096 49.5659 680.466 50.0869 683.591 51.1289C686.74 52.1487 689.566 53.6562 692.071 55.6515C694.576 57.6246 696.649 60.0411 698.29 62.901C699.93 65.7387 701.039 68.9866 701.615 72.6446ZM720.715 88.2742V118.602H710.772V50.497H720.582V75.837H721.214C722.411 73.088 724.24 70.9043 726.701 69.2859C729.162 67.6675 732.375 66.8583 736.345 66.8583C739.847 66.8583 742.908 67.5788 745.524 69.0199C748.161 70.4609 750.198 72.6113 751.641 75.4712C753.105 78.309 753.838 81.8563 753.838 86.1125V118.602H743.894V87.31C743.894 83.5632 742.93 80.6588 740.998 78.5971C739.071 76.5132 736.389 75.4712 732.953 75.4712C730.603 75.4712 728.497 75.9701 726.635 76.9677C724.795 77.9653 723.342 79.4286 722.278 81.3575C721.236 83.2637 720.715 85.5696 720.715 88.2742ZM779.628 119.733C776.39 119.733 773.467 119.134 770.851 117.937C768.236 116.718 766.16 114.955 764.63 112.65C763.121 110.344 762.372 107.518 762.372 104.17C762.372 101.288 762.923 98.9156 764.035 97.0535C765.142 95.1914 766.639 93.7169 768.522 92.6305C770.405 91.5442 772.514 90.7238 774.838 90.1699C777.167 89.6154 779.54 89.1942 781.957 88.9062C785.018 88.5511 787.502 88.2631 789.407 88.0412C791.312 87.7979 792.699 87.4097 793.564 86.8778C794.428 86.3454 794.858 85.4809 794.858 84.2839V84.051C794.858 81.1466 794.037 78.8965 792.396 77.3003C790.778 75.704 788.366 74.9059 785.151 74.9059C781.803 74.9059 779.165 75.6486 777.233 77.134C775.328 78.5971 774.006 80.2265 773.28 82.0226L763.93 79.8941C765.043 76.7903 766.661 74.2852 768.787 72.3786C770.939 70.4498 773.412 69.0531 776.203 68.1885C778.995 67.3017 781.935 66.8583 785.018 66.8583C787.056 66.8583 789.219 67.1022 791.499 67.5899C793.806 68.0555 795.959 68.9201 797.952 70.1838C799.967 71.4474 801.619 73.2543 802.907 75.6042C804.19 77.9321 804.835 80.9583 804.835 84.6826V118.602H795.127V111.619H794.725C794.081 112.905 793.118 114.168 791.835 115.41C790.546 116.652 788.895 117.682 786.879 118.503C784.859 119.323 782.447 119.733 779.628 119.733ZM781.792 111.752C784.539 111.752 786.89 111.209 788.84 110.123C790.816 109.036 792.308 107.617 793.332 105.866C794.373 104.092 794.891 102.197 794.891 100.179V93.5952C794.538 93.9498 793.85 94.2823 792.831 94.5929C791.835 94.8808 790.69 95.1358 789.407 95.3577C788.118 95.557 786.868 95.7453 785.646 95.9226C784.429 96.0778 783.411 96.2111 782.59 96.3218C780.658 96.5657 778.896 96.9759 777.299 97.5523C775.73 98.1288 774.463 98.9602 773.511 100.047C772.58 101.11 772.112 102.529 772.112 104.303C772.112 106.764 773.021 108.626 774.838 109.89C776.66 111.131 778.973 111.752 781.792 111.752ZM839.583 67.5234V75.5045H811.684V67.5234H839.583ZM819.161 55.2857H829.105V103.605C829.105 105.533 829.397 106.985 829.97 107.961C830.548 108.914 831.291 109.568 832.199 109.923C833.13 110.255 834.138 110.422 835.228 110.422C836.026 110.422 836.72 110.367 837.32 110.255C837.92 110.145 838.383 110.056 838.719 109.989L840.514 118.203C839.935 118.425 839.115 118.647 838.052 118.868C836.99 119.112 835.657 119.246 834.061 119.268C831.445 119.312 829.006 118.846 826.743 117.871C824.486 116.896 822.658 115.388 821.259 113.348C819.86 111.309 819.161 108.748 819.161 105.667V55.2857ZM871.479 118.602V50.497H914.179V59.3427H881.754V80.0938H911.949V88.9062H881.754V109.756H914.575V118.602H871.479ZM934.711 88.2742V118.602H924.767V67.5234H934.309V75.837H934.942C936.115 73.1323 937.954 70.9597 940.459 69.3192C942.986 67.6786 946.169 66.8583 950.006 66.8583C953.486 66.8583 956.537 67.5899 959.152 69.0531C961.767 70.4942 963.793 72.6446 965.236 75.5045C966.679 78.3644 967.4 81.9004 967.4 86.1125V118.602H957.456V87.31C957.456 83.6078 956.493 80.7144 954.56 78.6304C952.633 76.5243 949.984 75.4712 946.615 75.4712C944.308 75.4712 942.259 75.9701 940.459 76.9677C938.686 77.9653 937.282 79.4286 936.236 81.3575C935.217 83.2637 934.711 85.5696 934.711 88.2742ZM988.334 88.2742V118.602H978.39V50.497H988.202V75.837H988.835C990.03 73.088 991.858 70.9043 994.319 69.2859C996.78 67.6675 999.996 66.8583 1003.97 66.8583C1007.47 66.8583 1010.53 67.5788 1013.14 69.0199C1015.78 70.4609 1017.82 72.6113 1019.26 75.4712C1020.73 78.309 1021.46 81.8563 1021.46 86.1125V118.602H1011.51V87.31C1011.51 83.5632 1010.55 80.6588 1008.62 78.5971C1006.69 76.5132 1004.01 75.4712 1000.57 75.4712C998.223 75.4712 996.114 75.9701 994.253 76.9677C992.414 77.9653 990.96 79.4286 989.898 81.3575C988.857 83.2637 988.334 85.5696 988.334 88.2742ZM1047.25 119.733C1044.01 119.733 1041.09 119.134 1038.47 117.937C1035.85 116.718 1033.78 114.955 1032.25 112.65C1030.74 110.344 1029.99 107.518 1029.99 104.17C1029.99 101.288 1030.54 98.9156 1031.65 97.0535C1032.76 95.1914 1034.26 93.7169 1036.14 92.6305C1038.03 91.5442 1040.13 90.7238 1042.46 90.1699C1044.79 89.6154 1047.16 89.1942 1049.58 88.9062C1052.63 88.5511 1055.12 88.2631 1057.03 88.0412C1058.93 87.7979 1060.32 87.4097 1061.18 86.8778C1062.05 86.3454 1062.48 85.4809 1062.48 84.2839V84.051C1062.48 81.1466 1061.66 78.8965 1060.02 77.3003C1058.4 75.704 1055.98 74.9059 1052.77 74.9059C1049.42 74.9059 1046.78 75.6486 1044.85 77.134C1042.95 78.5971 1041.63 80.2265 1040.89 82.0226L1031.55 79.8941C1032.66 76.7903 1034.28 74.2852 1036.41 72.3786C1038.56 70.4498 1041.03 69.0531 1043.82 68.1885C1046.62 67.3017 1049.56 66.8583 1052.63 66.8583C1054.68 66.8583 1056.83 67.1022 1059.12 67.5899C1061.43 68.0555 1063.58 68.9201 1065.57 70.1838C1067.59 71.4474 1069.24 73.2543 1070.53 75.6042C1071.81 77.9321 1072.45 80.9583 1072.45 84.6826V118.602H1062.75V111.619H1062.35C1061.7 112.905 1060.74 114.168 1059.46 115.41C1058.17 116.652 1056.51 117.682 1054.5 118.503C1052.48 119.323 1050.06 119.733 1047.25 119.733ZM1049.41 111.752C1052.16 111.752 1054.51 111.209 1056.46 110.123C1058.43 109.036 1059.93 107.617 1060.95 105.866C1061.99 104.092 1062.51 102.197 1062.51 100.179V93.5952C1062.16 93.9498 1061.47 94.2823 1060.45 94.5929C1059.46 94.8808 1058.31 95.1358 1057.03 95.3577C1055.74 95.557 1054.49 95.7453 1053.27 95.9226C1052.05 96.0778 1051.03 96.2111 1050.21 96.3218C1048.28 96.5657 1046.52 96.9759 1044.92 97.5523C1043.34 98.1288 1042.08 98.9602 1041.13 100.047C1040.2 101.11 1039.73 102.529 1039.73 104.303C1039.73 106.764 1040.64 108.626 1042.46 109.89C1044.28 111.131 1046.59 111.752 1049.41 111.752ZM1093.3 88.2742V118.602H1083.36V67.5234H1092.9V75.837H1093.53C1094.71 73.1323 1096.55 70.9597 1099.05 69.3192C1101.58 67.6786 1104.76 66.8583 1108.6 66.8583C1112.08 66.8583 1115.13 67.5899 1117.74 69.0531C1120.36 70.4942 1122.39 72.6446 1123.83 75.5045C1125.27 78.3644 1125.99 81.9004 1125.99 86.1125V118.602H1116.05V87.31C1116.05 83.6078 1115.08 80.7144 1113.16 78.6304C1111.22 76.5243 1108.57 75.4712 1105.2 75.4712C1102.9 75.4712 1100.85 75.9701 1099.05 76.9677C1097.28 77.9653 1095.87 79.4286 1094.83 81.3575C1093.81 83.2637 1093.3 85.5696 1093.3 88.2742ZM1158.5 119.633C1153.56 119.633 1149.3 118.514 1145.73 116.274C1142.18 114.013 1139.46 110.898 1137.55 106.93C1135.64 102.961 1134.69 98.4168 1134.69 93.2956C1134.69 88.1079 1135.66 83.5302 1137.62 79.5615C1139.57 75.571 1142.32 72.4562 1145.86 70.217C1149.41 67.9779 1153.59 66.8583 1158.4 66.8583C1162.28 66.8583 1165.74 67.5788 1168.78 69.0199C1171.81 70.4387 1174.26 72.434 1176.12 75.0057C1178.01 77.5774 1179.13 80.5811 1179.48 84.0174H1169.81C1169.27 81.6234 1168.06 79.5615 1166.15 77.8323C1164.26 76.1031 1161.73 75.2385 1158.57 75.2385C1155.79 75.2385 1153.37 75.9701 1151.28 77.4333C1149.22 78.8743 1147.61 80.9363 1146.46 83.6188C1145.31 86.2788 1144.73 89.4271 1144.73 93.0627C1144.73 96.7876 1145.3 100.002 1146.43 102.707C1147.56 105.412 1149.15 107.507 1151.22 108.992C1153.3 110.477 1155.75 111.22 1158.57 111.22C1160.45 111.22 1162.16 110.876 1163.69 110.189C1165.24 109.48 1166.54 108.471 1167.58 107.163C1168.65 105.855 1169.38 104.281 1169.81 102.441H1179.48C1179.13 105.744 1178.05 108.693 1176.26 111.287C1174.46 113.88 1172.06 115.92 1169.04 117.405C1166.05 118.89 1162.53 119.633 1158.5 119.633ZM1209.79 119.633C1204.76 119.633 1200.43 118.558 1196.79 116.408C1193.17 114.235 1190.38 111.187 1188.41 107.263C1186.46 103.317 1185.48 98.6938 1185.48 93.3953C1185.48 88.1635 1186.46 83.5522 1188.41 79.5615C1190.38 75.571 1193.13 72.4562 1196.65 70.217C1200.2 67.9779 1204.35 66.8583 1209.09 66.8583C1211.97 66.8583 1214.77 67.335 1217.47 68.2883C1220.18 69.2415 1222.6 70.738 1224.76 72.7776C1226.9 74.8172 1228.6 77.4665 1229.84 80.7254C1231.08 83.9624 1231.71 87.8975 1231.71 92.5309V96.0558H1191.1V88.6067H1221.96C1221.96 85.9908 1221.43 83.6739 1220.36 81.6565C1219.3 79.617 1217.8 78.0097 1215.88 76.8347C1213.97 75.6597 1211.73 75.0722 1209.16 75.0722C1206.37 75.0722 1203.93 75.7595 1201.84 77.134C1199.78 78.4863 1198.18 80.2601 1197.06 82.4548C1195.94 84.6275 1195.39 86.9885 1195.39 89.5378V95.3577C1195.39 98.7714 1195.99 101.676 1197.19 104.07C1198.41 106.464 1200.1 108.294 1202.28 109.557C1204.45 110.799 1206.98 111.419 1209.89 111.419C1211.77 111.419 1213.49 111.153 1215.04 110.621C1216.6 110.067 1217.93 109.247 1219.07 108.16C1220.2 107.074 1221.06 105.733 1221.66 104.136L1231.07 105.833C1230.32 108.604 1228.97 111.032 1227.01 113.116C1225.09 115.177 1222.66 116.784 1219.74 117.937C1216.83 119.068 1213.51 119.633 1209.79 119.633ZM1240.39 118.602V67.5234H1250.01V75.6375H1250.54C1251.47 72.8884 1253.11 70.7269 1255.46 69.1529C1257.83 67.5566 1260.51 66.7585 1263.51 66.7585C1264.13 66.7585 1264.86 66.7807 1265.71 66.825C1266.57 66.8694 1267.24 66.9248 1267.73 66.9913V76.5021C1267.34 76.3913 1266.62 76.2694 1265.6 76.1363C1264.58 75.9811 1263.56 75.9035 1262.54 75.9035C1260.19 75.9035 1258.1 76.4024 1256.26 77.4C1254.44 78.3755 1253 79.7389 1251.93 81.4902C1250.87 83.2196 1250.34 85.1924 1250.34 87.4097V118.602H1240.39Z" fill="#2F2F2F"/>
<path d="M169 383.784V161.268H248.315C265.626 161.268 279.968 164.419 291.341 170.72C302.713 177.022 311.223 185.642 316.874 196.579C322.523 207.444 325.348 219.685 325.348 233.303C325.348 246.993 322.487 259.307 316.765 270.244C311.115 281.109 302.568 289.729 291.123 296.103C279.751 302.405 265.445 305.556 248.206 305.556H193.664V277.09H245.164C256.101 277.09 264.974 275.206 271.783 271.44C278.592 267.6 283.59 262.385 286.777 255.794C289.964 249.203 291.558 241.706 291.558 233.303C291.558 224.901 289.964 217.44 286.777 210.921C283.59 204.402 278.556 199.295 271.675 195.601C264.866 191.908 255.884 190.06 244.729 190.06H202.573V383.784H169ZM373.168 161.268V383.784H340.682V161.268H373.168ZM444.022 387.479C433.445 387.479 423.887 385.523 415.341 381.611C406.792 377.627 400.02 371.869 395.022 364.336C390.096 356.803 387.633 347.568 387.633 336.63C387.633 327.214 389.444 319.463 393.066 313.379C396.687 307.294 401.577 302.477 407.734 298.928C413.893 295.379 420.77 292.699 428.379 290.888C435.983 289.077 443.736 287.701 451.626 286.759C461.625 285.6 469.735 284.659 475.968 283.935C482.195 283.137 486.721 281.87 489.546 280.132C492.37 278.393 493.786 275.568 493.786 271.657V270.896C493.786 261.407 491.104 254.056 485.747 248.84C480.455 243.625 472.56 241.017 462.06 241.017C451.119 241.017 442.502 243.444 436.198 248.297C429.971 253.078 425.659 258.402 423.27 264.269L392.74 257.315C396.361 247.174 401.649 238.989 408.603 232.76C415.628 226.458 423.705 221.895 432.834 219.07C441.957 216.173 451.554 214.724 461.625 214.724C468.287 214.724 475.351 215.521 482.812 217.114C490.344 218.635 497.37 221.46 503.889 225.589C510.48 229.718 515.876 235.621 520.077 243.299C524.278 250.905 526.381 260.792 526.381 272.961V383.784H494.655V360.968H493.351C491.247 365.169 488.098 369.298 483.897 373.354C479.696 377.41 474.3 380.778 467.709 383.458C461.118 386.139 453.223 387.479 444.022 387.479ZM451.086 361.402C460.067 361.402 467.748 359.628 474.118 356.078C480.566 352.529 485.455 347.893 488.786 342.171C492.189 336.376 493.896 330.184 493.896 323.592V302.079C492.734 303.238 490.487 304.325 487.156 305.339C483.897 306.28 480.169 307.113 475.968 307.837C471.767 308.489 467.67 309.105 463.69 309.685C459.703 310.192 456.372 310.626 453.691 310.988C447.392 311.785 441.632 313.125 436.418 315.008C431.276 316.892 427.146 319.608 424.03 323.157C420.99 326.634 419.465 331.27 419.465 337.064C419.465 345.105 422.438 351.189 428.379 355.318C434.315 359.374 441.886 361.402 451.086 361.402ZM562.793 446.367C557.942 446.367 553.52 445.969 549.54 445.172C545.553 444.448 542.585 443.651 540.625 442.782L548.449 416.162C554.39 417.756 559.676 418.444 564.312 418.227C568.948 418.01 573.039 416.271 576.591 413.011C580.214 409.752 583.402 404.428 586.155 397.04L590.174 385.957L529.112 216.897H563.877L606.141 346.409H607.881L650.146 216.897H685.026L616.251 406.058C613.063 414.75 609.005 422.102 604.082 428.114C599.154 434.198 593.285 438.762 586.479 441.804C579.668 444.846 571.773 446.367 562.793 446.367ZM758.433 449.844C745.174 449.844 733.766 448.106 724.207 444.628C714.72 441.152 706.968 436.552 700.955 430.83C694.943 425.108 690.455 418.842 687.482 412.033L715.408 400.516C717.363 403.704 719.967 407.072 723.227 410.621C726.564 414.243 731.051 417.321 736.7 419.856C742.427 422.391 749.777 423.659 758.757 423.659C771.074 423.659 781.25 420.653 789.288 414.641C797.327 408.702 801.347 399.213 801.347 386.175V353.362H799.287C797.327 356.911 794.503 360.859 790.808 365.205C787.191 369.551 782.191 373.318 775.815 376.505C769.445 379.692 761.147 381.286 750.933 381.286C737.752 381.286 725.875 378.207 715.298 372.05C704.793 365.821 696.462 356.658 690.307 344.561C684.222 332.393 681.183 317.435 681.183 299.688C681.183 281.943 684.189 266.732 690.202 254.056C696.286 241.38 704.611 231.674 715.188 224.937C725.765 218.128 737.752 214.724 751.154 214.724C761.51 214.724 769.874 216.462 776.25 219.939C782.626 223.344 787.587 227.327 791.138 231.891C794.756 236.454 797.547 240.474 799.502 243.951H801.892V216.897H833.727V387.479C833.727 401.82 830.396 413.591 823.729 422.79C817.066 431.989 808.047 438.798 796.677 443.216C785.379 447.635 772.627 449.844 758.433 449.844ZM758.108 354.34C767.451 354.34 775.347 352.167 781.795 347.821C788.308 343.402 793.236 337.101 796.567 328.916C799.976 320.658 801.677 310.771 801.677 299.254C801.677 288.027 800.009 278.14 796.677 269.593C793.346 261.046 788.457 254.382 782.009 249.601C775.562 244.748 767.595 242.321 758.108 242.321C748.329 242.321 740.18 244.856 733.661 249.927C727.142 254.924 722.214 261.733 718.883 270.353C715.623 278.973 713.993 288.606 713.993 299.254C713.993 310.192 715.662 319.789 718.993 328.047C722.324 336.304 727.252 342.751 733.766 347.387C740.362 352.022 748.472 354.34 758.108 354.34ZM855.878 383.784V216.897H887.279V243.408H889.019C892.058 234.426 897.421 227.364 905.097 222.221C912.849 217.006 921.615 214.398 931.393 214.398C933.42 214.398 935.809 214.471 938.562 214.615C941.387 214.76 943.595 214.941 945.191 215.158V246.233C943.886 245.87 941.568 245.472 938.237 245.037C934.906 244.53 931.57 244.277 928.238 244.277C920.563 244.277 913.719 245.907 907.706 249.166C901.765 252.353 897.058 256.808 893.578 262.53C890.104 268.18 888.364 274.627 888.364 281.87V383.784H855.878ZM1016.21 387.153C1000.56 387.153 986.905 383.567 975.243 376.396C963.582 369.225 954.53 359.193 948.082 346.3C941.635 333.407 938.413 318.341 938.413 301.101C938.413 283.789 941.635 268.651 948.082 255.685C954.53 242.719 963.582 232.652 975.243 225.48C986.905 218.309 1000.56 214.724 1016.21 214.724C1031.85 214.724 1045.51 218.309 1057.17 225.48C1068.83 232.652 1077.89 242.719 1084.33 255.685C1090.78 268.651 1094 283.789 1094 301.101C1094 318.341 1090.78 333.407 1084.33 346.3C1077.89 359.193 1068.83 369.225 1057.17 376.396C1045.51 383.567 1031.85 387.153 1016.21 387.153ZM1016.32 359.881C1026.45 359.881 1034.86 357.201 1041.52 351.841C1048.19 346.481 1053.11 339.346 1056.3 330.437C1059.56 321.528 1061.19 311.713 1061.19 300.992C1061.19 290.345 1059.56 280.566 1056.3 271.657C1053.11 262.675 1048.19 255.468 1041.52 250.035C1034.86 244.603 1026.45 241.887 1016.32 241.887C1006.1 241.887 997.625 244.603 990.891 250.035C984.229 255.468 979.268 262.675 976.009 271.657C972.821 280.566 971.224 290.345 971.224 300.992C971.224 311.713 972.821 321.528 976.009 330.437C979.268 339.346 984.229 346.481 990.891 351.841C997.625 357.201 1006.1 359.881 1016.32 359.881ZM1214.56 314.574V216.897H1247.16V383.784H1215.21V354.883H1213.48C1209.63 363.793 1203.48 371.217 1195.01 377.157C1186.6 383.024 1176.14 385.957 1163.6 385.957C1152.88 385.957 1143.4 383.603 1135.14 378.895C1126.96 374.114 1120.51 367.052 1115.8 357.708C1111.17 348.364 1108.85 336.811 1108.85 323.049V216.897H1141.33V319.137C1141.33 330.51 1144.48 339.564 1150.79 346.3C1157.09 353.036 1165.27 356.404 1175.34 356.404C1181.42 356.404 1187.47 354.883 1193.49 351.841C1199.57 348.799 1204.6 344.199 1208.59 338.042C1212.64 331.885 1214.63 324.063 1214.56 314.574ZM1301.88 284.695V383.784H1269.39V216.897H1300.57V244.059H1302.64C1306.47 235.223 1312.49 228.124 1320.67 222.764C1328.93 217.404 1339.32 214.724 1351.86 214.724C1363.23 214.724 1373.19 217.114 1381.74 221.895C1390.28 226.603 1396.91 233.629 1401.62 242.973C1406.33 252.317 1408.68 263.87 1408.68 277.632V383.784H1376.2V281.544C1376.2 269.448 1373.04 259.995 1366.74 253.186C1360.44 246.305 1351.78 242.865 1340.78 242.865C1333.24 242.865 1326.54 244.494 1320.67 247.753C1314.88 251.013 1310.28 255.794 1306.88 262.096C1303.55 268.325 1301.88 275.858 1301.88 284.695ZM1493.31 387.044C1479.84 387.044 1467.81 383.603 1457.24 376.722C1446.73 369.769 1438.48 359.881 1432.46 347.061C1426.52 334.167 1423.55 318.702 1423.55 300.666C1423.55 282.631 1426.56 267.202 1432.57 254.382C1438.66 241.561 1446.99 231.746 1457.56 224.937C1468.14 218.128 1480.12 214.724 1493.53 214.724C1503.88 214.724 1512.21 216.462 1518.51 219.939C1524.89 223.344 1529.82 227.327 1533.29 231.891C1536.84 236.454 1539.59 240.474 1541.55 243.951H1543.5V161.268H1575.99V383.784H1544.26V357.817H1541.55C1539.59 361.366 1536.77 365.422 1533.08 369.986C1529.45 374.549 1524.45 378.533 1518.08 381.937C1511.71 385.342 1503.45 387.044 1493.31 387.044ZM1500.48 359.338C1509.82 359.338 1517.72 356.875 1524.17 351.95C1530.69 346.952 1535.61 340.034 1538.94 331.197C1542.35 322.361 1544.05 312.075 1544.05 300.34C1544.05 288.751 1542.38 278.61 1539.05 269.918C1535.72 261.226 1530.83 254.454 1524.38 249.601C1517.93 244.748 1509.97 242.321 1500.48 242.321C1490.7 242.321 1482.55 244.856 1476.03 249.927C1469.51 254.997 1464.59 261.914 1461.25 270.679C1458 279.443 1456.37 289.331 1456.37 300.34C1456.37 311.496 1458.03 321.528 1461.36 330.437C1464.7 339.346 1469.62 346.409 1476.14 351.624C1482.73 356.767 1490.84 359.338 1500.48 359.338Z" fill="url(#paint1_linear_535_68)"/>
<defs>
<filter id="filter0_d_535_68" x="499.746" y="43.0379" width="89.3879" height="82.4026" filterUnits="userSpaceOnUse" color-interpolation-filters="sRGB">
<feFlood flood-opacity="0" result="BackgroundImageFix"/>
<feColorMatrix in="SourceAlpha" type="matrix" values="0 0 0 0 0 0 0 0 0 0 0 0 0 0 0 0 0 0 127 0" result="hardAlpha"/>
<feOffset dy="2.7088"/>
<feGaussianBlur stdDeviation="2.7088"/>
<feComposite in2="hardAlpha" operator="out"/>
<feColorMatrix type="matrix" values="0 0 0 0 0 0 0 0 0 0 0 0 0 0 0 0 0 0 0.1 0"/>
<feBlend mode="normal" in2="BackgroundImageFix" result="effect1_dropShadow_535_68"/>
<feBlend mode="normal" in="SourceGraphic" in2="effect1_dropShadow_535_68" result="shape"/>
</filter>
<linearGradient id="paint0_linear_535_68" x1="565.611" y1="139.097" x2="546.26" y2="25.6115" gradientUnits="userSpaceOnUse">
<stop stop-color="#FD0032"/>
<stop offset="1" stop-color="#FE0031"/>
</linearGradient>
<linearGradient id="paint1_linear_535_68" x1="874.103" y1="86.4589" x2="874.103" y2="455.362" gradientUnits="userSpaceOnUse">
<stop stop-color="#3198FF"/>
<stop offset="1" stop-color="#85C7FF"/>
</linearGradient>
</defs>
</svg>
